<svg width="90" height="80" viewBox="0 0 90 80" fill="none" xmlns="http://www.w3.org/2000/svg">
<rect width="89.6" height="80" fill="#0F0F0F"/>
<path d="M41.14 50.5493C42.6269 47.3269 41.2464 43.4967 38.0598 41.9931C34.8732 40.4896 31.0827 41.8826 29.5987 45.1079C28.1118 48.3302 29.4894 52.1604 32.6789 53.664C35.8655 55.1647 39.6531 53.7716 41.14 50.5493Z" fill="#F5554B"/>
<path d="M45.9286 29.9609C47.4155 26.7385 46.035 22.9083 42.8484 21.4048C39.6619 19.9012 35.8742 21.2972 34.3873 24.5195C32.9004 27.7419 34.2809 31.5721 37.4675 33.0756C40.6541 34.5792 44.4417 33.1833 45.9286 29.9609Z" fill="#0073E6"/>
<path d="M61.162 44.4213C62.6489 41.199 61.2684 37.3688 58.0818 35.8652C54.8952 34.3616 51.1076 35.7576 49.6207 38.98C48.1338 42.2023 49.5143 46.0325 52.7009 47.5361C55.8875 49.0397 59.6751 47.6437 61.162 44.4213Z" fill="#46C882"/>
</svg>