<svg width="312" height="152" viewBox="0 0 312 152" fill="none" xmlns="http://www.w3.org/2000/svg">
<rect width="312" height="152" fill="#0F0F0F"/>
<g clip-path="url(#clip0_127_66106)">
<path d="M251.332 56.3266C253.111 52.5 251.459 47.9517 247.647 46.1662C243.835 44.3807 239.3 46.0349 237.525 49.8649C235.746 53.6915 237.394 58.2398 241.21 60.0253C245.022 61.8074 249.553 60.1531 251.332 56.3266Z" fill="#F5554B"/>
<path d="M257.06 31.8787C258.839 28.0522 257.187 23.5038 253.375 21.7183C249.563 19.9329 245.032 21.5906 243.253 25.4171C241.474 29.2437 243.126 33.792 246.938 35.5775C250.75 37.363 255.281 35.7053 257.06 31.8787Z" fill="#0073E6"/>
<path d="M275.284 49.0499C277.063 45.2233 275.412 40.675 271.6 38.8895C267.787 37.104 263.256 38.7617 261.477 42.5883C259.699 46.4148 261.35 50.9632 265.162 52.7487C268.974 54.5342 273.506 52.8764 275.284 49.0499Z" fill="#46C882"/>
<path d="M256.523 96.7644C257.256 92.3887 260.424 89.9919 264.188 89.9919C268.365 89.9919 271.118 92.5718 271.579 96.7644H256.523ZM264.966 111C266.986 111 268.912 110.817 271.62 110.078L275.016 109.156V105.564L271.62 106.486C269.05 107.222 267.03 107.453 265.055 107.453C260.098 107.453 256.839 104.873 256.382 100.035H275.749V97.9628C275.749 91.3734 271.021 86.49 264.182 86.49C257.342 86.49 252.157 91.4666 252.157 98.8365C252.157 106.206 257.39 111 264.963 111M229.91 96.7644C230.646 92.3887 233.812 89.9919 237.576 89.9919C241.752 89.9919 244.505 92.5718 244.966 96.7644H229.91ZM238.357 111C240.376 111 242.303 110.817 245.011 110.078L248.407 109.156V105.564L245.011 106.486C242.441 107.222 240.421 107.453 238.446 107.453C233.488 107.453 230.23 104.873 229.772 100.035H249.143V97.9628C249.143 91.3734 244.415 86.49 237.576 86.49C230.736 86.49 225.551 91.4666 225.551 98.8365C225.551 106.206 230.784 111 238.357 111ZM212.614 111C219.086 111 223.08 108.237 223.08 103.906C223.08 100.311 220.693 97.9628 215.738 97.0407L210.092 96.0253C207.34 95.5177 206.283 94.599 206.283 93.1243C206.283 91.0522 208.441 89.9919 212.573 89.9919C214.18 89.9919 216.567 90.3615 218.676 90.9589L222.072 91.9743V88.2893L218.676 87.3672C216.75 86.8596 214.317 86.49 212.435 86.49C205.964 86.49 202.155 89.2529 202.155 93.3557C202.155 96.5814 204.45 98.6984 208.809 99.4824L214.637 100.498C217.62 101.05 218.907 102.204 218.907 104C218.907 106.21 216.705 107.453 212.618 107.453C210.505 107.453 207.846 107.084 205.688 106.438L202.155 105.426V109.066L205.688 110.033C207.89 110.679 210.598 111 212.618 111M175.652 110.309H179.784V98.6984C179.784 93.5388 183.18 89.9436 187.494 89.9436C191.441 89.9436 193.921 92.6615 193.921 96.9923V110.306H198.054V96.5295C198.054 90.4029 194.245 86.4417 188.324 86.4417C184.56 86.4417 181.532 88.2375 179.788 91.2318V87.1324H175.655V110.306L175.652 110.309ZM152.043 96.7644C152.776 92.3887 155.944 89.9919 159.708 89.9919C163.885 89.9919 166.638 92.5718 167.099 96.7644H152.043ZM160.489 111C162.509 111 164.436 110.817 167.143 110.078L170.539 109.156V105.564L167.143 106.486C164.573 107.222 162.554 107.453 160.579 107.453C155.621 107.453 152.363 104.873 151.905 100.035H171.272V97.9628C171.272 91.3734 166.545 86.49 159.705 86.49C152.865 86.49 147.68 91.4666 147.68 98.8365C147.68 106.206 152.913 111 160.486 111M124.456 98.6984C124.456 93.5837 127.763 89.9919 132.49 89.9919C137.217 89.9919 140.888 93.5837 140.888 98.6984C140.888 103.813 137.444 107.453 132.49 107.453C127.535 107.453 124.456 103.858 124.456 98.6984ZM131.709 111C135.655 111 138.824 109.249 140.751 106.3V110.309H144.883V78.0599H140.751V91.1454C138.824 88.1961 135.655 86.4451 131.709 86.4451C124.962 86.4451 120.235 91.5115 120.235 98.6984C120.235 105.885 124.962 111 131.709 111ZM96.4291 98.6984C96.4291 93.632 99.8697 90.0368 104.783 90.0368C109.696 90.0368 113.088 93.6285 113.088 98.6984C113.088 103.768 109.648 107.405 104.783 107.405C99.9179 107.405 96.4291 103.813 96.4291 98.6984ZM104.783 111C112.08 111 117.313 105.795 117.313 98.6984C117.313 91.6013 112.08 86.4451 104.783 86.4451C97.4854 86.4451 92.2076 91.6497 92.2076 98.6984C92.2076 105.747 97.4407 111 104.783 111ZM65.3573 92.0641V81.7448H80.0004C82.801 81.7448 84.8654 84.0484 84.8654 86.9045C84.8654 89.7606 82.801 92.0641 80.0004 92.0641H65.3573ZM65.3573 106.621V95.5625H79.8593C82.9352 95.5625 85.2748 97.9593 85.2748 101.092C85.2748 104.224 82.9352 106.621 79.8593 106.621H65.3573ZM60.998 110.306H80.458C85.8287 110.306 89.7303 106.666 89.7303 101.506C89.7303 97.6347 87.5731 94.8269 84.1772 93.6734C87.2978 92.6132 89.3175 90.0334 89.3175 86.5798C89.3175 81.6516 85.5982 78.0564 80.5509 78.0564H60.998V110.306Z" fill="white"/>
<path d="M202.918 69.3465H207.05V57.7356C207.05 52.576 210.446 48.9808 214.761 48.9808C218.707 48.9808 221.188 51.6988 221.188 56.0295V69.343H225.32V55.5668C225.32 49.4401 221.511 45.4789 215.59 45.4789C211.826 45.4789 208.798 47.2747 207.054 50.269V46.1696H202.922V69.343L202.918 69.3465ZM179.557 55.8016C180.289 51.4259 183.458 49.0292 187.222 49.0292C191.399 49.0292 194.152 51.609 194.613 55.8016H179.557ZM188 70.0372C190.019 70.0372 191.946 69.8542 194.654 69.1151L198.05 68.193V64.5978L194.654 65.52C192.084 66.2556 190.064 66.487 188.089 66.487C183.131 66.487 179.873 63.9071 179.416 59.0687H198.783V56.9965C198.783 50.4071 194.055 45.5238 187.215 45.5238C180.375 45.5238 175.19 50.5004 175.19 57.8703C175.19 65.2402 180.424 70.0338 187.996 70.0338M170.649 69.5744C171.612 69.5744 172.438 69.4812 173.081 69.2982L174.688 68.8837V65.1504L173.081 65.6097C172.393 65.8411 171.612 65.9309 170.969 65.9309C169.225 65.9309 168.261 64.8258 168.261 62.7053V37.0971H164.129V63.0334C164.129 67.409 166.379 69.5744 170.645 69.5744M157.888 69.5744C158.851 69.5744 159.677 69.4812 160.32 69.2982L161.927 68.8837V65.1504L160.32 65.6097C159.632 65.8411 158.851 65.9309 158.208 65.9309C156.463 65.9309 155.5 64.8258 155.5 62.7053V37.0971H151.368V63.0334C151.368 67.409 153.618 69.5744 157.884 69.5744M129.014 62.985C129.014 60.8645 130.528 59.6213 133.835 58.6992L142.464 56.3507V58.2398C142.464 63.0299 138.837 66.487 133.697 66.487C130.807 66.487 129.014 65.2886 129.014 62.985ZM132.916 69.9889C137 69.9889 140.719 68.0998 142.464 65.1055V69.343H146.596V54.7863C146.596 48.9808 142.419 45.5272 135.902 45.5272C133.838 45.5272 131.543 45.8484 128.973 46.5391L125.44 47.5061V51.1911L128.973 50.1792C131.636 49.3952 133.425 49.0292 135.49 49.0292C139.071 49.0292 141.411 50.3173 142.192 53.0353L132.692 55.5219C127.366 56.9516 124.8 59.5315 124.8 63.2613C124.8 67.3607 128.058 69.9889 132.923 69.9889M104.789 70.0338C109.974 70.0338 114.426 67.637 116.494 64.0902V69.343H120.441V51.1911H102.357V54.9244H116.264V56.1677C116.264 62.1113 111.674 66.3039 105.295 66.3039C97.86 66.3039 92.7645 60.5917 92.7645 53.2183C92.7645 45.3407 98.1799 40.1811 106.166 40.1811C108.691 40.1811 112.087 40.6888 114.382 41.3312L119.247 42.6677V38.7962L114.382 37.5046C111.856 36.8139 108.736 36.3995 106.073 36.3995C95.7475 36.3995 88.3571 43.2652 88.3571 53.17C88.3571 63.0748 95.424 70.0303 104.789 70.0303M79.821 69.7989C80.7396 69.7989 82.1606 69.6608 83.3545 69.3396L85.2812 68.8319V65.0986L83.3545 65.6512C82.0677 65.9724 80.7396 66.1105 79.9586 66.1105C77.1133 66.1105 75.6441 64.6358 75.6441 61.7348V49.5714H85.6493V46.1627H75.6441V39.9877H71.512V46.1627H65.6837V49.5714H71.512V62.2391C71.512 67.0292 74.3574 69.7955 79.821 69.7955M50.8582 70.0269C59.2119 70.0269 64.3522 66.4317 64.3522 60.4432C64.3522 55.698 61.0939 52.5207 55.0798 51.4121L46.819 49.8926C43.4231 49.2018 41.634 47.7721 41.634 45.2855C41.634 41.9666 44.9851 40.2191 50.5382 40.2191C52.4649 40.2191 55.3103 40.5403 58.4309 41.4175L63.1135 42.7091V38.7928L58.4309 37.5495C55.6303 36.8139 52.7849 36.3995 50.4901 36.3995C42.415 36.4029 37.1819 39.8599 37.1819 45.3891C37.1819 49.7648 40.3954 52.6692 45.5356 53.6362L53.7036 55.1558C57.7875 55.8914 59.9 57.7356 59.9 60.5917C59.9 64.1385 56.5489 66.2107 50.8135 66.2107C48.3362 66.2107 45.1227 65.7962 41.8163 64.8741L36.9961 63.5376V67.4539L41.8163 68.7456C44.937 69.6193 48.1057 70.0372 50.8582 70.0372" fill="white"/>
</g>
<defs>
<clipPath id="clip0_127_66106">
<rect width="239" height="90" fill="white" transform="translate(37 21)"/>
</clipPath>
</defs>
</svg>